<svg width="24" height="24" viewBox="0 0 24 24" fill="none" xmlns="http://www.w3.org/2000/svg">
<g clip-path="url(#clip0_49_38)">
<path d="M17.1587 6.84369C16.7687 6.4536 16.5404 5.93069 16.5193 5.37951C16.4983 4.82834 16.6861 4.28955 17.0452 3.87088C17.0749 3.83606 17.0904 3.7913 17.0884 3.74557C17.0865 3.69985 17.0674 3.65653 17.0349 3.62431L14.9663 1.55338C14.9321 1.5192 14.8858 1.5 14.8374 1.5C14.7891 1.5 14.7427 1.5192 14.7085 1.55338L11.4113 4.85056C11.2897 4.97219 11.198 5.12048 11.1437 5.28369C11.0895 5.44727 10.998 5.59599 10.8763 5.71804C10.7547 5.84009 10.6063 5.93211 10.4429 5.98681C10.2796 6.04123 10.1311 6.13286 10.0093 6.25447L1.5535 14.7084C1.51932 14.7426 1.50012 14.7889 1.50012 14.8373C1.50012 14.8856 1.51932 14.932 1.5535 14.9662L3.62209 17.0348C3.65431 17.0673 3.69762 17.0864 3.74335 17.0883C3.78908 17.0902 3.83384 17.0748 3.86866 17.0451C4.28723 16.6856 4.82615 16.4975 5.37751 16.5184C5.92887 16.5393 6.45199 16.7677 6.84215 17.1579C7.2323 17.548 7.46069 18.0711 7.4816 18.6225C7.50251 19.1739 7.31439 19.7128 6.95491 20.1313C6.92521 20.1662 6.90976 20.2109 6.91168 20.2567C6.91359 20.3024 6.93271 20.3457 6.96522 20.3779L9.03381 22.4465C9.06801 22.4807 9.11437 22.4999 9.16272 22.4999C9.21106 22.4999 9.25743 22.4807 9.29162 22.4465L17.7479 13.9907C17.8695 13.8689 17.9611 13.7204 18.0155 13.5571C18.0697 13.3935 18.1612 13.2448 18.2829 13.1228C18.4045 13.0007 18.5529 12.9087 18.7163 12.854C18.8795 12.7996 19.0278 12.708 19.1494 12.5863L22.4466 9.28916C22.4808 9.25496 22.5 9.2086 22.5 9.16025C22.5 9.11191 22.4808 9.06554 22.4466 9.03135L20.378 6.96275C20.3458 6.93025 20.3025 6.91112 20.2568 6.90921C20.211 6.9073 20.1663 6.92274 20.1315 6.95244C19.7134 7.31215 19.1749 7.50078 18.6238 7.48061C18.0726 7.46045 17.5493 7.23298 17.1587 6.84369Z" stroke="white" stroke-width="1.5" stroke-miterlimit="10"/>
<path d="M11.7422 6.58348L10.9683 5.80957M13.8056 8.64691L13.2895 8.13129M15.869 10.7108L15.3534 10.1947M18.1908 13.0321L17.4169 12.2582" stroke="white" stroke-width="1.5" stroke-miterlimit="10" stroke-linecap="round"/>
</g>
<defs>
<clipPath id="clip0_49_38">
<rect width="24" height="24" fill="white"/>
</clipPath>
</defs>
</svg>
