<?xml version="1.0" encoding="UTF-8"?><svg id="Capa_2" xmlns="http://www.w3.org/2000/svg" viewBox="0 0 727.24 139.54"><defs><style>.cls-1{fill:#3c3c3b;}</style></defs><g id="Capa_1-2"><path class="cls-1" d="m345.32,5.12h62.47l48.51,80.15L504.99,5.12h60.21v128.8h-43.41V44.76l-55.3,89.16h-23.59l-55.3-89.16v89.16h-42.28V5.12Z"/><path class="cls-1" d="m707.04,20.55c-13.47-13.7-29.62-20.55-48.44-20.55-19.86,0-36.66,6.75-50.39,20.25-13.73,13.5-20.6,29.99-20.6,49.47s6.82,35.74,20.45,49.37c13.63,13.63,30.09,20.45,49.37,20.45s35.9-6.78,49.47-20.35c13.57-13.57,20.35-30.06,20.35-49.47s-6.73-35.48-20.21-49.17Zm-28.82,70.84c-5.68,5.94-12.61,8.91-20.79,8.91s-14.95-2.99-20.69-8.96c-5.74-5.97-8.62-13.18-8.62-21.62,0-1.35.1-2.66.25-3.95,3.11,4.6,8.37,7.63,14.34,7.63,9.55,0,17.29-7.74,17.29-17.29,0-7.13-4.31-13.24-10.47-15.89,2.5-.7,5.13-1.08,7.91-1.08,8.18,0,15.11,2.97,20.79,8.91,5.68,5.94,8.52,13.16,8.52,21.67s-2.84,15.73-8.52,21.67Z"/><path class="cls-1" d="m308.87,20.55c-13.47-13.7-29.62-20.55-48.44-20.55-19.86,0-36.66,6.75-50.39,20.25-13.73,13.5-20.6,29.99-20.6,49.47s6.82,35.74,20.45,49.37c13.63,13.63,30.09,20.45,49.37,20.45s35.9-6.78,49.47-20.35c13.57-13.57,20.35-30.06,20.35-49.47s-6.73-35.48-20.21-49.17Zm-28.82,70.84c-5.68,5.94-12.61,8.91-20.79,8.91s-14.95-2.99-20.69-8.96c-5.74-5.97-8.62-13.18-8.62-21.62,0-1.35.1-2.66.25-3.95,3.11,4.6,8.37,7.63,14.34,7.63,9.55,0,17.29-7.74,17.29-17.29,0-7.13-4.31-13.24-10.47-15.89,2.5-.7,5.13-1.08,7.91-1.08,8.18,0,15.11,2.97,20.79,8.91,5.68,5.94,8.52,13.16,8.52,21.67s-2.84,15.73-8.52,21.67Z"/><path class="cls-1" d="m176.62,5.52v29.19H43.69v19h130.48v29.36H43.69v50.95H0V5.52h176.62Z"/></g></svg>